<?xml version="1.0" encoding="utf-8"?>
<!-- Generator: Adobe Illustrator 22.1.0, SVG Export Plug-In . SVG Version: 6.00 Build 0)  -->
<svg version="1.1" id="Layer_1" xmlns="http://www.w3.org/2000/svg" xmlns:xlink="http://www.w3.org/1999/xlink" x="0px" y="0px"
	 viewBox="0 0 512 512" style="enable-background:new 0 0 512 512;" xml:space="preserve">
<g>
	<path d="M481,129.4h-56.2V73.2h-56.2v56.2h-56.2v56.2h56.2v56.2h56.2v-56.2H481V129.4z"/>
	<path d="M410.7,270.1c8.4,8.4,16.9,19.7,22.5,28.1c-16.9,25.3-39.4,47.8-64.7,64.7c-33.8,22.5-70.3,33.8-109.7,33.8
		s-78.8-11.2-109.7-33.8c-30.9-16.9-53.4-39.4-70.3-64.7c16.9-25.3,39.4-47.8,64.7-64.7c2.8,0,2.8-2.8,5.6-2.8
		c-2.8,11.2-5.6,22.5-5.6,36.6c0,61.9,50.6,112.5,112.5,112.5s112.5-50.6,112.5-112.5l0,0c-47.8-11.3-84.4-56.3-84.4-106.9
		c-8.4-2.8-19.7-2.8-28.1-2.8c-98.4,0-182.8,56.2-225,140.6c42.2,84.4,126.6,140.6,225,140.6s182.8-56.2,225-140.6
		c-8.4-16.9-16.9-30.9-28.1-42.2C441.6,261.6,424.8,267.2,410.7,270.1L410.7,270.1z M213.8,213.8c22.5,0,42.2,19.7,42.2,42.2
		s-19.7,42.2-42.2,42.2s-42.2-19.7-42.2-42.2S191.3,213.8,213.8,213.8z"/>
</g>
</svg>
