<svg id="img" fill="currentColor" version="1.1" xmlns="http://www.w3.org/2000/svg" viewBox="0 0 32 32">
<path d="M15.979 22.42c3.461 0 6.275-2.815 6.275-6.276 0-1.879-.831-3.565-2.141-4.717a6.282 6.282 0 0 0-1.544-.997c-.791-.36-1.665-.561-2.588-.561s-1.799.201-2.588.561c-.565.259-1.085.596-1.544.999-1.313 1.152-2.144 2.839-2.144 4.717 0 3.46 2.816 6.275 6.275 6.275zM16 11.508c2.561 0 4.639 2.076 4.639 4.637S18.562 20.784 16 20.784s-4.639-2.076-4.639-4.639c0-2.561 2.077-4.637 4.639-4.637zm6.964.492H32v13.704C32 29.181 29.181 32 25.704 32H6.38C2.903 32 0 29.181 0 25.704V12h8.996c-.725 1.217-1.163 2.625-1.163 4.145 0 4.499 3.647 8.145 8.145 8.145s8.145-3.647 8.145-8.145c.001-1.52-.436-2.928-1.16-4.145zm2.74-12H9.333v6.667H8V0H6.667v6.667H5.334V.103c-.461.076-.909.191-1.333.36v6.204H2.668V1.198C1.065 2.341.001 4.193.001 6.297v4.371h9.964c1.556-1.709 3.731-2.667 6.015-2.667 2.296 0 4.468.967 6.015 2.667h10.007V6.297c0-3.477-2.819-6.296-6.296-6.296zm3.629 7.02c0 .541-.444.98-.993.98h-3.348C24.444 8 24 7.561 24 7.02V3.647c0-.541.444-.98.992-.98h3.348c.549 0 .993.439.993.98V7.02z"></path>
</svg>