<svg xmlns:xlink="http://www.w3.org/1999/xlink" xmlns="http://www.w3.org/2000/svg" class="icon svgicon-search" width="32"  height="32" ><defs><symbol id="svgicon-search" viewBox="0 0 32 32">
<path d="M13.333 2q2.438 0 4.661.953t3.828 2.557 2.557 3.828.953 4.661q0 2.094-.682 4.01t-1.943 3.479l7.573 7.563q.385.385.385.948 0 .573-.38.953t-.953.38q-.563 0-.948-.385l-7.563-7.573q-1.563 1.26-3.479 1.943t-4.01.682q-2.438 0-4.661-.953t-3.828-2.557-2.557-3.828T1.333 14t.953-4.661 2.557-3.828 3.828-2.557 4.661-.953zm0 2.667q-1.896 0-3.625.74t-2.979 1.99-1.99 2.979-.74 3.625.74 3.625 1.99 2.979 2.979 1.99 3.625.74 3.625-.74 2.979-1.99 1.99-2.979.74-3.625-.74-3.625-1.99-2.979-2.979-1.99-3.625-.74z"></path>
</symbol></defs><use xlink:href="#svgicon-search" stroke="#FEFEFE" fill="#FEFEFE" stroke-width="5px"></use></svg>