<?xml version="1.0" encoding="UTF-8" standalone="no" ?>
<!DOCTYPE svg PUBLIC "-//W3C//DTD SVG 1.1//EN" "http://www.w3.org/Graphics/SVG/1.1/DTD/svg11.dtd">
<svg id="img" xmlns="http://www.w3.org/2000/svg" xmlns:xlink="http://www.w3.org/1999/xlink" version="1.1" width="640" height="480" viewBox="0 0 640 480" xml:space="preserve">
<desc>Created with Fabric.js 3.6.3</desc>
<defs>
</defs>
<g transform="matrix(-6.86 0 0 5.11 323.51 240.88)"  >
<path style="stroke: none; stroke-width: 1; stroke-dasharray: none; stroke-linecap: butt; stroke-dashoffset: 0; stroke-linejoin: miter; stroke-miterlimit: 10; fill: auto; fill-rule: nonzero; opacity: 1;"  transform=" translate(-45, -45)" d="M 14.972 86.134 c -0.193 0 -0.388 -0.038 -0.574 -0.116 c -0.551 -0.231 -0.909 -0.77 -0.909 -1.368 V 67.853 H 5.177 C 2.322 67.853 0 65.531 0 62.676 V 9.043 c 0 -2.854 2.322 -5.177 5.177 -5.177 h 79.646 C 87.678 3.866 90 6.189 90 9.043 v 53.633 c 0 2.855 -2.322 5.177 -5.177 5.177 H 34.206 L 16.011 85.709 C 15.728 85.987 15.353 86.134 14.972 86.134 z M 5.177 6.833 c -1.218 0 -2.21 0.991 -2.21 2.21 v 53.633 c 0 1.219 0.991 2.21 2.21 2.21 h 9.795 c 0.82 0 1.484 0.664 1.484 1.484 v 14.746 L 32.56 65.311 c 0.278 -0.272 0.65 -0.425 1.039 -0.425 h 51.224 c 1.219 0 2.21 -0.991 2.21 -2.21 V 9.043 c 0 -1.218 -0.991 -2.21 -2.21 -2.21 H 5.177 z" stroke-linecap="round" />
</g>
<g transform="matrix(-6.86 0 0 5.11 322.29 194.62)"  >
<path style="stroke: none; stroke-width: 1; stroke-dasharray: none; stroke-linecap: butt; stroke-dashoffset: 0; stroke-linejoin: miter; stroke-miterlimit: 10; fill: auto; fill-rule: nonzero; opacity: 1;"  transform=" translate(-45.19, -35.98)" d="M 45.194 45.22 c -5.094 0 -9.239 -4.144 -9.239 -9.238 c 0 -5.094 4.144 -9.239 9.239 -9.239 c 5.094 0 9.238 4.144 9.238 9.239 C 54.432 41.076 50.288 45.22 45.194 45.22 z M 45.194 29.711 c -3.458 0 -6.272 2.813 -6.272 6.272 c 0 3.458 2.813 6.271 6.272 6.271 c 3.458 0 6.271 -2.813 6.271 -6.271 C 51.465 32.524 48.652 29.711 45.194 29.711 z" stroke-linecap="round" />
</g>
<g transform="matrix(-6.86 0 0 5.11 159.55 194.62)"  >
<path style="stroke: none; stroke-width: 1; stroke-dasharray: none; stroke-linecap: butt; stroke-dashoffset: 0; stroke-linejoin: miter; stroke-miterlimit: 10; fill: auto; fill-rule: nonzero; opacity: 1;"  transform=" translate(-68.93, -35.98)" d="M 68.931 45.22 c -5.094 0 -9.238 -4.144 -9.238 -9.238 c 0 -5.094 4.144 -9.239 9.238 -9.239 s 9.238 4.144 9.238 9.239 C 78.169 41.076 74.024 45.22 68.931 45.22 z M 68.931 29.711 c -3.458 0 -6.271 2.813 -6.271 6.272 c 0 3.458 2.813 6.271 6.271 6.271 s 6.271 -2.813 6.271 -6.271 C 75.202 32.524 72.388 29.711 68.931 29.711 z" stroke-linecap="round" />
</g>
<g transform="matrix(-6.86 0 0 5.11 485.04 194.62)"  >
<path style="stroke: none; stroke-width: 1; stroke-dasharray: none; stroke-linecap: butt; stroke-dashoffset: 0; stroke-linejoin: miter; stroke-miterlimit: 10; fill: auto; fill-rule: nonzero; opacity: 1;"  transform=" translate(-21.46, -35.98)" d="M 21.458 45.22 c -5.094 0 -9.239 -4.144 -9.239 -9.238 c 0 -5.094 4.144 -9.239 9.239 -9.239 s 9.239 4.144 9.239 9.239 C 30.697 41.076 26.552 45.22 21.458 45.22 z M 21.458 29.711 c -3.458 0 -6.272 2.813 -6.272 6.272 c 0 3.458 2.813 6.271 6.272 6.271 s 6.272 -2.813 6.272 -6.271 C 27.73 32.524 24.916 29.711 21.458 29.711 z" stroke-linecap="round" />
</g>
</svg>