<svg id="img" fill="currentColor" version="1.1" xmlns="http://www.w3.org/2000/svg" viewBox="0 0 32 32">
<path d="M0 0v32h32V0H0zm25.149 12.316c.277 6.156-4.313 13.02-12.44 13.02-2.472 0-4.772-.724-6.709-1.967 2.323.273 4.64-.371 6.48-1.812-1.916-.036-3.532-1.301-4.088-3.04.687.131 1.361.092 1.976-.075-2.105-.423-3.557-2.319-3.511-4.347.589.328 1.265.525 1.981.548-1.948-1.303-2.5-3.876-1.355-5.844 2.159 2.648 5.384 4.391 9.021 4.573-.639-2.737 1.439-5.373 4.264-5.373 1.259 0 2.396.531 3.195 1.383.997-.196 1.935-.56 2.78-1.061-.327 1.023-1.021 1.88-1.924 2.421.885-.107 1.729-.341 2.513-.689a8.949 8.949 0 0 1-2.184 2.263z"></path>
</svg>