<svg id="img" fill="currentColor" version="1.1" xmlns="http://www.w3.org/2000/svg" viewBox="0 0 32 32">
<path d="M18.517 18.872c-.384 0-.713.245-.956.54v-2.524h-1.085v7.84h1.085v-.444c.3.373.628.517 1.021.517.716 0 .983-.556.983-1.272v-3.208c0-.784-.26-1.449-1.048-1.449zm-.058 4.501c0 .184-.031.317-.093.399-.119.155-.375.148-.551.06l-.255-.204v-3.604l.223-.176c.188-.095.431-.077.561.095.077.101.115.249.115.444v2.987zM14.837 12V9.175c0-.333.153-.579.471-.579.347 0 .495.239.495.579V12c0 .331-.168.575-.472.575-.313 0-.493-.255-.493-.575zm-2.465 6.027h-1.253v6.703H9.908v-6.703H8.655v-1.139h3.717v1.139zm1.979.917h1.076v5.784h-1.076v-.639c-.197.235-.404.415-.619.537-.58.332-1.375.325-1.375-.848v-4.835h1.075v4.433c0 .233.056.389.287.389.209 0 .501-.269.632-.433v-4.389zM0 0v32h32V0H0zm17.912 7.493h1.129v4.655c0 .245.059.409.301.409.22 0 .527-.283.664-.455V7.493h1.129v6.073h-1.129v-.672c-.489.581-.964.759-1.305.759-.605 0-.788-.485-.788-1.084V7.493zm-2.583-.05c.916 0 1.623.681 1.623 1.632v2.977c0 1.02-.715 1.627-1.623 1.627-1.095 0-1.655-.556-1.655-1.627V9.075c0-.975.66-1.632 1.655-1.632zm-4.58-2.11l.877 3.291.815-3.291h1.292l-1.48 4.893v3.339h-1.272v-3.339L9.469 5.333h1.28zm11.324 21.216c-2.313.157-9.836.157-12.147 0-2.504-.171-2.796-1.689-2.815-5.66.019-3.977.313-5.488 2.815-5.66 2.311-.157 9.833-.157 12.147 0 2.504.171 2.796 1.689 2.815 5.66-.019 3.977-.313 5.488-2.815 5.66zm-.062-7.75c-.971 0-1.633.696-1.633 1.7v2.596c0 1.041.525 1.789 1.552 1.789 1.133 0 1.611-.675 1.611-1.789v-.435h-1.107v.401c0 .504-.027.809-.48.809-.433 0-.469-.376-.469-.809V21.97h2.056v-1.472c0-1.044-.497-1.7-1.529-1.7zm.422 2.276h-.949v-.585c0-.397.083-.677.48-.677.387 0 .469.287.469.677v.585z"></path>
</svg>