<?xml version="1.0" encoding="utf-8"?>
<!-- Generator: Adobe Illustrator 27.0.0, SVG Export Plug-In . SVG Version: 6.00 Build 0)  -->
<svg version="1.1" id="Layer_1" xmlns="http://www.w3.org/2000/svg" xmlns:xlink="http://www.w3.org/1999/xlink" x="0px" y="0px"
	 viewBox="0 0 32 29.3" style="enable-background:new 0 0 32 29.3;" xml:space="preserve">
<style type="text/css">
	.st0{fill:#559C56;}
</style>
<path class="st0" d="M7.3,12.1l2.1-2c2.5,1.2,4,2.1,6.8,4.1c5.2-5.9,8.7-8.9,15.1-12.9L32,2.9c-5.3,4.6-9.2,9.8-14.7,19.8
	C13.8,18.6,11.5,16,7.3,12.1L7.3,12.1z M26.5,12.9c0.1,0.6,0.2,1.2,0.2,1.8c0,6.6-5.4,12-12,12s-12-5.4-12-12s5.4-12,12-12
	c2.6,0,5.1,0.9,7,2.3c0.7-0.6,1.4-1.2,2.1-1.7c-2.5-2-5.7-3.2-9.2-3.2C6.6,0,0,6.6,0,14.7s6.6,14.7,14.7,14.7s14.7-6.6,14.7-14.7
	c0-1.6-0.3-3.1-0.7-4.5C27.9,11,27.2,11.9,26.5,12.9L26.5,12.9z"/>
</svg>
